<mxfile host="app.diagrams.net" modified="2024-04-26T01:11:31.433Z" agent="Mozilla/5.0 (Windows NT 10.0; Win64; x64) AppleWebKit/537.36 (KHTML, like Gecko) Chrome/124.0.0.0 Safari/537.36" etag="6_Wb0zu6EYk0_-kfgFXz" version="24.3.0" type="device">
  <diagram name="Page-1" id="VZ-QMsIv9FkYxZrvMwSJ">
    <mxGraphModel dx="989" dy="521" grid="1" gridSize="10" guides="1" tooltips="1" connect="1" arrows="1" fold="1" page="1" pageScale="1" pageWidth="850" pageHeight="1100" math="0" shadow="0">
      <root>
        <mxCell id="0" />
        <mxCell id="1" parent="0" />
        <mxCell id="Ake0VkzxOyYcg0XbJ1QT-1" value="&lt;p style=&quot;margin:0px;margin-top:4px;text-align:center;&quot;&gt;&lt;b&gt;demonic embrace&lt;/b&gt;&lt;/p&gt;&lt;hr size=&quot;1&quot; style=&quot;border-style:solid;&quot;&gt;&lt;p style=&quot;margin:0px;margin-left:4px;&quot;&gt;&lt;br&gt;&lt;/p&gt;&lt;hr size=&quot;1&quot; style=&quot;border-style:solid;&quot;&gt;&lt;p style=&quot;margin:0px;margin-left:4px;&quot;&gt;+ getLife()&lt;/p&gt;&lt;p style=&quot;margin:0px;margin-left:4px;&quot;&gt;+ getAbilityPower()&lt;/p&gt;&lt;p style=&quot;margin:0px;margin-left:4px;&quot;&gt;+ passive()&lt;/p&gt;" style="verticalAlign=top;align=left;overflow=fill;html=1;whiteSpace=wrap;" vertex="1" parent="1">
          <mxGeometry x="60" y="210" width="240" height="120" as="geometry" />
        </mxCell>
        <mxCell id="Ake0VkzxOyYcg0XbJ1QT-2" value="&lt;p style=&quot;margin:0px;margin-top:4px;text-align:center;&quot;&gt;&lt;b&gt;item&lt;/b&gt;&lt;/p&gt;&lt;hr size=&quot;1&quot; style=&quot;border-style:solid;&quot;&gt;&lt;p style=&quot;margin:0px;margin-left:4px;&quot;&gt;- name : String&lt;/p&gt;&lt;p style=&quot;margin:0px;margin-left:4px;&quot;&gt;- heal : Int&amp;nbsp;&lt;/p&gt;&lt;p style=&quot;margin:0px;margin-left:4px;&quot;&gt;- cost : int&lt;/p&gt;&lt;p style=&quot;margin:0px;margin-left:4px;&quot;&gt;- abilityPower : int&lt;/p&gt;&lt;hr size=&quot;1&quot; style=&quot;border-style:solid;&quot;&gt;&lt;p style=&quot;margin:0px;margin-left:4px;&quot;&gt;+ getLife()&lt;/p&gt;&lt;p style=&quot;margin:0px;margin-left:4px;&quot;&gt;+ passive()&lt;/p&gt;" style="verticalAlign=top;align=left;overflow=fill;html=1;whiteSpace=wrap;" vertex="1" parent="1">
          <mxGeometry x="60" y="40" width="240" height="140" as="geometry" />
        </mxCell>
        <mxCell id="Ake0VkzxOyYcg0XbJ1QT-3" style="edgeStyle=orthogonalEdgeStyle;rounded=0;orthogonalLoop=1;jettySize=auto;html=1;entryX=0.542;entryY=0.007;entryDx=0;entryDy=0;entryPerimeter=0;" edge="1" parent="1" source="Ake0VkzxOyYcg0XbJ1QT-2" target="Ake0VkzxOyYcg0XbJ1QT-1">
          <mxGeometry relative="1" as="geometry" />
        </mxCell>
        <mxCell id="Ake0VkzxOyYcg0XbJ1QT-39" style="edgeStyle=orthogonalEdgeStyle;rounded=0;orthogonalLoop=1;jettySize=auto;html=1;exitX=0.5;exitY=1;exitDx=0;exitDy=0;entryX=0.5;entryY=0;entryDx=0;entryDy=0;" edge="1" parent="1" source="Ake0VkzxOyYcg0XbJ1QT-7" target="Ake0VkzxOyYcg0XbJ1QT-38">
          <mxGeometry relative="1" as="geometry" />
        </mxCell>
        <mxCell id="Ake0VkzxOyYcg0XbJ1QT-7" value="passive" style="ellipse;whiteSpace=wrap;html=1;" vertex="1" parent="1">
          <mxGeometry x="520" y="40" width="130" height="50" as="geometry" />
        </mxCell>
        <mxCell id="Ake0VkzxOyYcg0XbJ1QT-31" style="edgeStyle=orthogonalEdgeStyle;rounded=0;orthogonalLoop=1;jettySize=auto;html=1;exitX=0;exitY=0.5;exitDx=0;exitDy=0;" edge="1" parent="1" source="Ake0VkzxOyYcg0XbJ1QT-16">
          <mxGeometry relative="1" as="geometry">
            <mxPoint x="489.9999999999998" y="270" as="targetPoint" />
          </mxGeometry>
        </mxCell>
        <mxCell id="Ake0VkzxOyYcg0XbJ1QT-33" value="false" style="edgeLabel;html=1;align=center;verticalAlign=middle;resizable=0;points=[];" vertex="1" connectable="0" parent="Ake0VkzxOyYcg0XbJ1QT-31">
          <mxGeometry x="0.0728" relative="1" as="geometry">
            <mxPoint as="offset" />
          </mxGeometry>
        </mxCell>
        <mxCell id="Ake0VkzxOyYcg0XbJ1QT-45" style="edgeStyle=orthogonalEdgeStyle;rounded=0;orthogonalLoop=1;jettySize=auto;html=1;exitX=1;exitY=0.5;exitDx=0;exitDy=0;entryX=0.5;entryY=0;entryDx=0;entryDy=0;" edge="1" parent="1" source="Ake0VkzxOyYcg0XbJ1QT-16" target="Ake0VkzxOyYcg0XbJ1QT-44">
          <mxGeometry relative="1" as="geometry" />
        </mxCell>
        <mxCell id="Ake0VkzxOyYcg0XbJ1QT-48" value="true" style="edgeLabel;html=1;align=center;verticalAlign=middle;resizable=0;points=[];" vertex="1" connectable="0" parent="Ake0VkzxOyYcg0XbJ1QT-45">
          <mxGeometry x="0.2263" y="1" relative="1" as="geometry">
            <mxPoint as="offset" />
          </mxGeometry>
        </mxCell>
        <mxCell id="Ake0VkzxOyYcg0XbJ1QT-16" value="Â¿doesHaveExtraLife?" style="rhombus;whiteSpace=wrap;html=1;" vertex="1" parent="1">
          <mxGeometry x="501.5" y="210" width="167" height="45" as="geometry" />
        </mxCell>
        <mxCell id="Ake0VkzxOyYcg0XbJ1QT-34" value="end" style="ellipse;whiteSpace=wrap;html=1;" vertex="1" parent="1">
          <mxGeometry x="465" y="270" width="50" height="30" as="geometry" />
        </mxCell>
        <mxCell id="Ake0VkzxOyYcg0XbJ1QT-42" style="edgeStyle=orthogonalEdgeStyle;rounded=0;orthogonalLoop=1;jettySize=auto;html=1;exitX=0.5;exitY=1;exitDx=0;exitDy=0;entryX=0.5;entryY=0;entryDx=0;entryDy=0;" edge="1" parent="1" source="Ake0VkzxOyYcg0XbJ1QT-38" target="Ake0VkzxOyYcg0XbJ1QT-16">
          <mxGeometry relative="1" as="geometry" />
        </mxCell>
        <mxCell id="Ake0VkzxOyYcg0XbJ1QT-38" value="&#xa;&lt;span style=&quot;color: rgb(0, 0, 0); font-family: Helvetica; font-size: 12px; font-style: normal; font-variant-ligatures: normal; font-variant-caps: normal; font-weight: 400; letter-spacing: normal; orphans: 2; text-align: center; text-indent: 0px; text-transform: none; widows: 2; word-spacing: 0px; -webkit-text-stroke-width: 0px; white-space: normal; background-color: rgb(251, 251, 251); text-decoration-thickness: initial; text-decoration-style: initial; text-decoration-color: initial; display: inline !important; float: none;&quot;&gt;gainAbilityPowerEqualTo2%OfBonusHealt&lt;/span&gt;&#xa;&#xa;" style="shape=parallelogram;perimeter=parallelogramPerimeter;whiteSpace=wrap;html=1;fixedSize=1;" vertex="1" parent="1">
          <mxGeometry x="460" y="140" width="250" height="35" as="geometry" />
        </mxCell>
        <mxCell id="Ake0VkzxOyYcg0XbJ1QT-46" style="edgeStyle=orthogonalEdgeStyle;rounded=0;orthogonalLoop=1;jettySize=auto;html=1;exitX=0;exitY=0.5;exitDx=0;exitDy=0;entryX=1;entryY=0.5;entryDx=0;entryDy=0;" edge="1" parent="1" source="Ake0VkzxOyYcg0XbJ1QT-44" target="Ake0VkzxOyYcg0XbJ1QT-34">
          <mxGeometry relative="1" as="geometry" />
        </mxCell>
        <mxCell id="Ake0VkzxOyYcg0XbJ1QT-47" value="false" style="edgeLabel;html=1;align=center;verticalAlign=middle;resizable=0;points=[];" vertex="1" connectable="0" parent="Ake0VkzxOyYcg0XbJ1QT-46">
          <mxGeometry x="0.0501" y="-1" relative="1" as="geometry">
            <mxPoint as="offset" />
          </mxGeometry>
        </mxCell>
        <mxCell id="Ake0VkzxOyYcg0XbJ1QT-53" style="edgeStyle=orthogonalEdgeStyle;rounded=0;orthogonalLoop=1;jettySize=auto;html=1;exitX=0.5;exitY=1;exitDx=0;exitDy=0;entryX=0.5;entryY=0;entryDx=0;entryDy=0;" edge="1" parent="1" source="Ake0VkzxOyYcg0XbJ1QT-44" target="Ake0VkzxOyYcg0XbJ1QT-52">
          <mxGeometry relative="1" as="geometry" />
        </mxCell>
        <mxCell id="Ake0VkzxOyYcg0XbJ1QT-54" value="true" style="edgeLabel;html=1;align=center;verticalAlign=middle;resizable=0;points=[];" vertex="1" connectable="0" parent="Ake0VkzxOyYcg0XbJ1QT-53">
          <mxGeometry x="-0.1343" relative="1" as="geometry">
            <mxPoint as="offset" />
          </mxGeometry>
        </mxCell>
        <mxCell id="Ake0VkzxOyYcg0XbJ1QT-44" value="damageEnemies" style="rhombus;whiteSpace=wrap;html=1;" vertex="1" parent="1">
          <mxGeometry x="630" y="262.5" width="110" height="45" as="geometry" />
        </mxCell>
        <mxCell id="Ake0VkzxOyYcg0XbJ1QT-60" style="edgeStyle=orthogonalEdgeStyle;rounded=0;orthogonalLoop=1;jettySize=auto;html=1;exitX=0.5;exitY=1;exitDx=0;exitDy=0;entryX=0.5;entryY=0;entryDx=0;entryDy=0;" edge="1" parent="1" source="Ake0VkzxOyYcg0XbJ1QT-50" target="Ake0VkzxOyYcg0XbJ1QT-59">
          <mxGeometry relative="1" as="geometry" />
        </mxCell>
        <mxCell id="Ake0VkzxOyYcg0XbJ1QT-50" value="damage * perSecond" style="rounded=0;whiteSpace=wrap;html=1;" vertex="1" parent="1">
          <mxGeometry x="615" y="430" width="140" height="30" as="geometry" />
        </mxCell>
        <mxCell id="Ake0VkzxOyYcg0XbJ1QT-55" style="edgeStyle=orthogonalEdgeStyle;rounded=0;orthogonalLoop=1;jettySize=auto;html=1;exitX=0;exitY=0.5;exitDx=0;exitDy=0;entryX=0.5;entryY=1;entryDx=0;entryDy=0;" edge="1" parent="1" source="Ake0VkzxOyYcg0XbJ1QT-52" target="Ake0VkzxOyYcg0XbJ1QT-34">
          <mxGeometry relative="1" as="geometry" />
        </mxCell>
        <mxCell id="Ake0VkzxOyYcg0XbJ1QT-56" value="true" style="edgeLabel;html=1;align=center;verticalAlign=middle;resizable=0;points=[];" vertex="1" connectable="0" parent="Ake0VkzxOyYcg0XbJ1QT-55">
          <mxGeometry x="0.6572" relative="1" as="geometry">
            <mxPoint as="offset" />
          </mxGeometry>
        </mxCell>
        <mxCell id="Ake0VkzxOyYcg0XbJ1QT-57" style="edgeStyle=orthogonalEdgeStyle;rounded=0;orthogonalLoop=1;jettySize=auto;html=1;exitX=0.5;exitY=1;exitDx=0;exitDy=0;entryX=0.5;entryY=0;entryDx=0;entryDy=0;" edge="1" parent="1" source="Ake0VkzxOyYcg0XbJ1QT-52" target="Ake0VkzxOyYcg0XbJ1QT-50">
          <mxGeometry relative="1" as="geometry" />
        </mxCell>
        <mxCell id="Ake0VkzxOyYcg0XbJ1QT-58" value="false" style="edgeLabel;html=1;align=center;verticalAlign=middle;resizable=0;points=[];" vertex="1" connectable="0" parent="Ake0VkzxOyYcg0XbJ1QT-57">
          <mxGeometry x="-0.3354" relative="1" as="geometry">
            <mxPoint as="offset" />
          </mxGeometry>
        </mxCell>
        <mxCell id="Ake0VkzxOyYcg0XbJ1QT-52" value="duration = 0" style="rhombus;whiteSpace=wrap;html=1;" vertex="1" parent="1">
          <mxGeometry x="640" y="350" width="90" height="47" as="geometry" />
        </mxCell>
        <mxCell id="Ake0VkzxOyYcg0XbJ1QT-61" style="edgeStyle=orthogonalEdgeStyle;rounded=0;orthogonalLoop=1;jettySize=auto;html=1;exitX=1;exitY=0.5;exitDx=0;exitDy=0;entryX=1;entryY=0.5;entryDx=0;entryDy=0;" edge="1" parent="1" source="Ake0VkzxOyYcg0XbJ1QT-59" target="Ake0VkzxOyYcg0XbJ1QT-52">
          <mxGeometry relative="1" as="geometry" />
        </mxCell>
        <mxCell id="Ake0VkzxOyYcg0XbJ1QT-59" value="result = damage*perSecond" style="shape=document;whiteSpace=wrap;html=1;boundedLbl=1;" vertex="1" parent="1">
          <mxGeometry x="600" y="490" width="170" height="30" as="geometry" />
        </mxCell>
      </root>
    </mxGraphModel>
  </diagram>
</mxfile>
